<svg id="logoipsum" data-name="logoipsum" xmlns="http://www.w3.org/2000/svg" viewBox="0 0 70 70"><path d="M30.46,48.57a13.69,13.69,0,0,1,26.57,0h-1.2a9.69,9.69,0,0,0-5.67,1.73,2.86,2.86,0,0,1-.3.19h-.14a2.86,2.86,0,0,1-.3-.19,10.17,10.17,0,0,0-11.35,0,2.86,2.86,0,0,1-.3.19h-.14a2.86,2.86,0,0,1-.3-.19,9.69,9.69,0,0,0-5.67-1.73Zm23.21,6.27a3.37,3.37,0,0,1,2.16-.71h1.61V50.92H55.83A6.38,6.38,0,0,0,52,52.14a3.64,3.64,0,0,1-4.32,0,6.8,6.8,0,0,0-7.77,0,3.64,3.64,0,0,1-4.32,0,6.38,6.38,0,0,0-3.88-1.22H30.05v3.21h1.61a3.37,3.37,0,0,1,2.16.71,6.78,6.78,0,0,0,7.76,0,3.39,3.39,0,0,1,2.16-.71,3.35,3.35,0,0,1,2.16.71,6.8,6.8,0,0,0,7.77,0Zm0,5.74a3.37,3.37,0,0,1,2.16-.71h1.61V56.66H55.83A6.38,6.38,0,0,0,52,57.88a3.64,3.64,0,0,1-4.32,0,6.8,6.8,0,0,0-7.77,0,3.64,3.64,0,0,1-4.32,0,6.38,6.38,0,0,0-3.88-1.22H30.05v3.21h1.61a3.37,3.37,0,0,1,2.16.71,6.78,6.78,0,0,0,7.76,0,3.39,3.39,0,0,1,2.16-.71,3.35,3.35,0,0,1,2.16.71,6.8,6.8,0,0,0,7.77,0Z" style="fill:#394149"/></svg>
