<svg xmlns="http://www.w3.org/2000/svg" width="169.942" height="40" viewBox="0 0 169.942 40"><defs><style>.a{fill:#262626;}</style></defs><g transform="translate(0 0)"><g transform="translate(51.308 17.236)"><path class="a" d="M68.9,62.432a3.827,3.827,0,0,1-2.412-.693,2.253,2.253,0,0,1-.91-1.892V46.46A.375.375,0,0,1,66,46.041h2.426c.274,0,.4.144.4.419V58.807c0,.549.245.823.751.823a2.08,2.08,0,0,0,.635-.072c.289,0,.448.087.462.347L70.9,61.71a.375.375,0,0,1-.347.448A5.445,5.445,0,0,1,68.9,62.432Z" transform="translate(-65.578 -46.038)"/><path class="a" d="M80.509,59.3a6.8,6.8,0,0,1-8.665,0,5.777,5.777,0,0,1,0-8.13,6.831,6.831,0,0,1,8.665,0,5.863,5.863,0,0,1,0,8.116Zm-6.383-1.906a3.076,3.076,0,0,0,4.13,0,3.235,3.235,0,0,0,0-4.246,3.076,3.076,0,0,0-4.13,0,3.235,3.235,0,0,0,0,4.246Z" transform="translate(-63.538 -44.449)"/><path class="a" d="M91.278,49.973c.274,0,.4.144.4.419V60.746a4.708,4.708,0,0,1-1.6,3.711,6.065,6.065,0,0,1-4.2,1.444,6.759,6.759,0,0,1-3.914-1.083,4.332,4.332,0,0,1-1.892-2.888c0-.289,0-.419.39-.419h2.426a.534.534,0,0,1,.477.332,1.892,1.892,0,0,0,.881,1.025,3.379,3.379,0,0,0,1.617.375,2.556,2.556,0,0,0,1.863-.664,2.455,2.455,0,0,0,.679-1.805v-.91a4.838,4.838,0,0,1-3,.939,5.6,5.6,0,0,1-4.1-1.574,5.777,5.777,0,0,1,0-8.029,5.647,5.647,0,0,1,4.1-1.56,4.852,4.852,0,0,1,3.076,1v-.231a.375.375,0,0,1,.4-.419Zm-5.6,8.26a2.542,2.542,0,0,0,1.978-.852,3.538,3.538,0,0,0,0-4.332,2.527,2.527,0,0,0-1.964-.838,2.6,2.6,0,0,0-2.007.852,3.062,3.062,0,0,0-.78,2.166,3.119,3.119,0,0,0,.765,2.152A2.614,2.614,0,0,0,85.675,58.234Z" transform="translate(-59.317 -44.439)"/><path class="a" d="M99.787,59.3a6.831,6.831,0,0,1-8.665,0,5.878,5.878,0,0,1,0-8.13,6.845,6.845,0,0,1,8.665,0,5.863,5.863,0,0,1,0,8.116Zm-6.4-1.906a3.1,3.1,0,0,0,4.145,0,3.278,3.278,0,0,0,0-4.246,3.1,3.1,0,0,0-4.145,0,3.278,3.278,0,0,0,0,4.246Z" transform="translate(-54.958 -44.447)"/><path class="a" d="M102.377,49.107a2.094,2.094,0,0,1-2.758,0,1.747,1.747,0,0,1,0-2.542,2.137,2.137,0,0,1,2.758,0,1.747,1.747,0,0,1,0,2.542Zm.3,13.315a3.885,3.885,0,0,1-2.412-.693,2.282,2.282,0,0,1-.9-1.892V51.981a.376.376,0,0,1,.419-.419h2.426c.274,0,.4.144.4.419V58.8q0,.823.737.823a2.238,2.238,0,0,0,.65-.072c.289,0,.448.087.462.347l.217,1.805a.375.375,0,0,1-.347.448A5.473,5.473,0,0,1,102.68,62.422Z" transform="translate(-50.703 -46.028)"/><path class="a" d="M111.623,49.633a5.661,5.661,0,0,1,4.13,1.56,5.921,5.921,0,0,1,0,8.073,5.618,5.618,0,0,1-4.13,1.574A4.968,4.968,0,0,1,108.6,59.9v5.213c0,.274-.144.4-.419.4H105.76a.347.347,0,0,1-.4-.4V53.272a.751.751,0,0,0-.852-.852h-.477q-.477,0-.477-.347v-1.7a.462.462,0,0,1,.332-.477,4.333,4.333,0,0,1,1.56-.26,2.672,2.672,0,0,1,2.614,1.444,4.867,4.867,0,0,1,3.567-1.444Zm-2.253,7.755a2.758,2.758,0,0,0,3.986,0,3.119,3.119,0,0,0,.794-2.21,3.076,3.076,0,0,0-.794-2.21,2.758,2.758,0,0,0-3.986,0,3.192,3.192,0,0,0-.765,2.21A3.235,3.235,0,0,0,109.37,57.388Z" transform="translate(-48.714 -44.446)"/><path class="a" d="M119.477,60.857a6.961,6.961,0,0,1-3.711-.9,3.524,3.524,0,0,1-1.675-2.556c0-.289.1-.433.419-.433h2.123a.549.549,0,0,1,.477.318c.3.78,1.1,1.17,2.368,1.17a2.7,2.7,0,0,0,1.285-.26.838.838,0,0,0,.491-.708c0-.375-.231-.635-.693-.809a7.813,7.813,0,0,0-1.69-.361,16.058,16.058,0,0,1-2.022-.361,3.322,3.322,0,0,1-1.69-.968,3.09,3.09,0,0,1,.621-4.477,5.95,5.95,0,0,1,3.495-.924,6.383,6.383,0,0,1,3.408.852,3.22,3.22,0,0,1,1.589,2.267q0,.433-.39.433h-2.137a.448.448,0,0,1-.433-.26,1.444,1.444,0,0,0-.751-.765,2.542,2.542,0,0,0-1.242-.289,2.513,2.513,0,0,0-1.228.246.722.722,0,0,0-.462.664.924.924,0,0,0,.693.852,7.827,7.827,0,0,0,1.719.433,18.888,18.888,0,0,1,2.007.375,3.322,3.322,0,0,1,1.69.968,2.729,2.729,0,0,1,.708,1.978A2.888,2.888,0,0,1,123.1,59.86,6.311,6.311,0,0,1,119.477,60.857Z" transform="translate(-44.032 -44.463)"/><path class="a" d="M135.891,60.008a.39.39,0,0,1-.332.448,5.575,5.575,0,0,1-1.632.274,3.206,3.206,0,0,1-2.888-1.256,5.228,5.228,0,0,1-3.683,1.256,4.477,4.477,0,0,1-3.379-1.314,4.737,4.737,0,0,1-1.285-3.48V50.289c0-.274.13-.419.4-.419h2.426c.274,0,.4.144.4.419V55.5a2.556,2.556,0,0,0,.621,1.776,2.166,2.166,0,0,0,1.661.679,2.4,2.4,0,0,0,1.733-.635,2.311,2.311,0,0,0,.65-1.719V50.289c0-.274.13-.419.4-.419h2.455c.274,0,.4.144.4.419v6.8c0,.563.245.838.722.838a2.281,2.281,0,0,0,.664-.072.375.375,0,0,1,.477.347Z" transform="translate(-40.214 -44.336)"/><path class="a" d="M154.493,60.117a.361.361,0,0,1-.332.448,5.6,5.6,0,0,1-1.661.274,3.856,3.856,0,0,1-2.412-.693,2.253,2.253,0,0,1-.968-1.892V54.861a2.556,2.556,0,0,0-.607-1.776,2.051,2.051,0,0,0-1.617-.679,1.805,1.805,0,0,0-1.444.635,2.57,2.57,0,0,0-.549,1.7v5.329c0,.274-.13.419-.4.419h-2.441a.375.375,0,0,1-.419-.419V54.861a2.671,2.671,0,0,0-.563-1.776,1.877,1.877,0,0,0-1.444-.679,2.094,2.094,0,0,0-1.589.635,2.383,2.383,0,0,0-.592,1.7v5.329a.376.376,0,0,1-.419.419H134.68c-.274,0-.4-.144-.4-.419v-6.8a.751.751,0,0,0-.852-.852h-.477q-.477,0-.477-.347v-1.7a.462.462,0,0,1,.332-.477,4.332,4.332,0,0,1,1.56-.26,2.715,2.715,0,0,1,2.571,1.329,4.881,4.881,0,0,1,3.668-1.329,4.145,4.145,0,0,1,3.423,1.531,4.766,4.766,0,0,1,3.784-1.531,4.563,4.563,0,0,1,3.423,1.314,4.708,4.708,0,0,1,1.285,3.48v2.787c0,.549.246.823.708.823a2.166,2.166,0,0,0,.664-.072q.448,0,.477.347Z" transform="translate(-35.87 -44.446)"/></g><path class="a" d="M30.642,55.775c2.192-10.335,10.105-17.59,19.185-17.59S66.82,45.44,69.013,55.775H67.28a12.593,12.593,0,0,0-8.188,2.93,4.106,4.106,0,0,1-.433.322h-.2a4.109,4.109,0,0,1-.433-.322,12.922,12.922,0,0,0-16.391,0,4.106,4.106,0,0,1-.433.322H41a4.108,4.108,0,0,1-.433-.322,12.593,12.593,0,0,0-8.188-2.93ZM64.16,66.4a4.414,4.414,0,0,1,3.119-1.2H69.6V59.756H67.28a8.324,8.324,0,0,0-5.531,2.066,4.646,4.646,0,0,1-6.239,0,8.654,8.654,0,0,0-11.221,0,4.646,4.646,0,0,1-6.239,0,8.317,8.317,0,0,0-5.6-2.066h-2.4v5.437h2.325a4.414,4.414,0,0,1,3.119,1.2,8.63,8.63,0,0,0,11.206,0,4.44,4.44,0,0,1,3.119-1.2,4.388,4.388,0,0,1,3.119,1.2,8.654,8.654,0,0,0,11.221,0Zm0,9.723a4.414,4.414,0,0,1,3.119-1.2H69.6V69.478H67.28a8.325,8.325,0,0,0-5.531,2.066,4.646,4.646,0,0,1-6.239,0,8.654,8.654,0,0,0-11.221,0,4.646,4.646,0,0,1-6.239,0,8.317,8.317,0,0,0-5.6-2.066h-2.4v5.437h2.325a4.414,4.414,0,0,1,3.119,1.2,8.63,8.63,0,0,0,11.206,0,4.44,4.44,0,0,1,3.119-1.2,4.388,4.388,0,0,1,3.119,1.2,8.654,8.654,0,0,0,11.221,0Z" transform="translate(-30.05 -38.186)"/></g></svg>